<svg width="292" height="72" viewBox="0 0 292 72" fill="none" xmlns="http://www.w3.org/2000/svg">
<circle cx="91" cy="3" r="3" fill="#F3F0EA"/>
<circle cx="201" cy="3" r="3" fill="#F3F0EA"/>
<circle cx="3" cy="3" r="3" fill="#F3F0EA"/>
<circle cx="113" cy="3" r="3" fill="#F3F0EA"/>
<circle cx="223" cy="3" r="3" fill="#F3F0EA"/>
<circle cx="25" cy="3" r="3" fill="#F3F0EA"/>
<circle cx="135" cy="3" r="3" fill="#F3F0EA"/>
<circle cx="245" cy="3" r="3" fill="#F3F0EA"/>
<circle cx="47" cy="3" r="3" fill="#F3F0EA"/>
<circle cx="157" cy="3" r="3" fill="#F3F0EA"/>
<circle cx="267" cy="3" r="3" fill="#F3F0EA"/>
<circle cx="69" cy="3" r="3" fill="#F3F0EA"/>
<circle cx="179" cy="3" r="3" fill="#F3F0EA"/>
<circle cx="289" cy="3" r="3" fill="#F3F0EA"/>
<circle cx="91" cy="47" r="3" fill="#F3F0EA"/>
<circle cx="201" cy="47" r="3" fill="#F3F0EA"/>
<circle cx="3" cy="47" r="3" fill="#F3F0EA"/>
<circle cx="113" cy="47" r="3" fill="#F3F0EA"/>
<circle cx="223" cy="47" r="3" fill="#F3F0EA"/>
<circle cx="25" cy="47" r="3" fill="#F3F0EA"/>
<circle cx="135" cy="47" r="3" fill="#F3F0EA"/>
<circle cx="245" cy="47" r="3" fill="#F3F0EA"/>
<circle cx="47" cy="47" r="3" fill="#F3F0EA"/>
<circle cx="157" cy="47" r="3" fill="#F3F0EA"/>
<circle cx="267" cy="47" r="3" fill="#F3F0EA"/>
<circle cx="69" cy="47" r="3" fill="#F3F0EA"/>
<circle cx="179" cy="47" r="3" fill="#F3F0EA"/>
<circle cx="289" cy="47" r="3" fill="#F3F0EA"/>
<circle cx="91" cy="25" r="3" fill="#F3F0EA"/>
<circle cx="201" cy="25" r="3" fill="#F3F0EA"/>
<circle cx="3" cy="25" r="3" fill="#F3F0EA"/>
<circle cx="113" cy="25" r="3" fill="#F3F0EA"/>
<circle cx="223" cy="25" r="3" fill="#F3F0EA"/>
<circle cx="25" cy="25" r="3" fill="#F3F0EA"/>
<circle cx="135" cy="25" r="3" fill="#F3F0EA"/>
<circle cx="245" cy="25" r="3" fill="#F3F0EA"/>
<circle cx="47" cy="25" r="3" fill="#F3F0EA"/>
<circle cx="157" cy="25" r="3" fill="#F3F0EA"/>
<circle cx="267" cy="25" r="3" fill="#F3F0EA"/>
<circle cx="69" cy="25" r="3" fill="#F3F0EA"/>
<circle cx="179" cy="25" r="3" fill="#F3F0EA"/>
<circle cx="289" cy="25" r="3" fill="#F3F0EA"/>
<circle cx="91" cy="69" r="3" fill="#F3F0EA"/>
<circle cx="201" cy="69" r="3" fill="#F3F0EA"/>
<circle cx="3" cy="69" r="3" fill="#F3F0EA"/>
<circle cx="113" cy="69" r="3" fill="#F3F0EA"/>
<circle cx="223" cy="69" r="3" fill="#F3F0EA"/>
<circle cx="25" cy="69" r="3" fill="#F3F0EA"/>
<circle cx="135" cy="69" r="3" fill="#F3F0EA"/>
<circle cx="245" cy="69" r="3" fill="#F3F0EA"/>
<circle cx="47" cy="69" r="3" fill="#F3F0EA"/>
<circle cx="157" cy="69" r="3" fill="#F3F0EA"/>
<circle cx="267" cy="69" r="3" fill="#F3F0EA"/>
<circle cx="69" cy="69" r="3" fill="#F3F0EA"/>
<circle cx="179" cy="69" r="3" fill="#F3F0EA"/>
<circle cx="289" cy="69" r="3" fill="#F3F0EA"/>
</svg>
